<?xml version="1.0" standalone="no"?>
<!DOCTYPE svg PUBLIC "-//W3C//DTD SVG 20010904//EN"
 "http://www.w3.org/TR/2001/REC-SVG-20010904/DTD/svg10.dtd">
<svg version="1.0" xmlns="http://www.w3.org/2000/svg"
 width="35pt" height="15pt" viewBox="0 0 357.000000 155.000000"
 preserveAspectRatio="xMidYMid meet">
<metadata>
Created by potrace 1.16, written by Peter Selinger 2001-2019
</metadata>
<g transform="translate(0.000000,155.000000) scale(0.100000,-0.100000)"
fill="#000" stroke="none">
<path d="M743 839 c-44 -13 -83 -69 -48 -69 19 0 19 6 -10 -77 -35 -102 -42
-151 -21 -159 11 -4 14 -13 11 -25 -13 -40 65 -51 137 -20 68 29 118 81 118
123 0 34 -24 68 -48 68 -19 0 -14 9 17 36 54 45 52 96 -5 120 -37 16 -103 17
-151 3z"/>
<path d="M1366 835 c-76 -27 -146 -124 -146 -202 0 -91 109 -133 196 -76 63
41 107 191 70 238 -14 19 -17 19 -43 4 -29 -16 -29 -15 -17 -110 7 -55 -14
-104 -52 -121 -21 -10 -28 -8 -47 10 -18 18 -22 33 -21 81 1 77 29 123 95 157
27 13 49 27 49 29 0 9 -45 4 -84 -10z"/>
<path d="M1620 820 c-59 -64 -110 -212 -87 -259 18 -37 42 -38 57 -1 15 37 48
80 61 80 17 0 9 -40 -11 -52 -26 -17 -26 -61 0 -103 27 -43 49 -51 73 -26 20
20 20 20 -6 55 -32 42 -33 49 -6 85 11 16 21 44 22 62 2 44 -25 49 -76 15 -34
-23 -37 -24 -37 -7 0 28 39 149 50 156 13 8 13 -56 0 -91 -16 -40 -2 -43 31
-6 49 55 35 122 -26 122 -9 0 -30 -14 -45 -30z"/>
<path d="M1974 840 c-30 -12 -64 -58 -64 -87 0 -15 17 -44 41 -71 56 -64 67
-88 47 -108 -14 -14 -17 -14 -32 1 -9 9 -16 25 -16 35 0 28 -18 34 -45 16 -32
-21 -32 -39 2 -65 70 -56 153 -28 169 56 7 36 -6 62 -51 107 -26 26 -33 70
-13 82 15 9 38 -23 38 -55 l1 -26 24 28 c30 34 31 51 5 77 -21 21 -68 26 -106
10z"/>
<path d="M1052 733 c-40 -20 -80 -69 -88 -110 -4 -23 0 -36 19 -59 22 -25 33
-29 75 -29 27 0 61 6 75 14 35 19 70 90 61 125 -8 33 -39 56 -65 49 -28 -8
-32 -20 -15 -45 20 -29 20 -67 0 -96 -20 -29 -40 -28 -60 3 -31 47 13 147 69
158 17 3 15 5 -8 5 -16 1 -45 -6 -63 -15z"/>
<path d="M2176 728 c-27 -43 -57 -131 -54 -162 5 -47 31 -44 83 11 l46 48 -3
-39 c-2 -28 2 -41 14 -49 15 -10 25 -4 61 31 23 23 45 42 48 42 3 0 3 -15 1
-33 -5 -43 33 -93 64 -83 17 5 19 16 19 110 0 131 -9 143 -60 87 -21 -23 -42
-41 -46 -41 -4 0 -2 15 3 34 13 41 5 66 -19 66 -9 0 -42 -26 -71 -57 -50 -53
-54 -55 -47 -28 5 17 9 41 9 55 1 33 -28 38 -48 8z"/>
</g>
  <style>
    path {fill:#222}
    @media (prefers-colors-scheme:dark) {
    path {fill:#fff}

    }
  </style>
</svg>
