<?xml version="1.0" standalone="no"?>
<!DOCTYPE svg PUBLIC "-//W3C//DTD SVG 20010904//EN"
 "http://www.w3.org/TR/2001/REC-SVG-20010904/DTD/svg10.dtd">
<svg version="1.0" xmlns="http://www.w3.org/2000/svg"
 width="500pt" height="500pt" viewBox="0 0 1024.000000 1024.000000"
 preserveAspectRatio="xMidYMid meet">
<metadata>
Created by potrace 1.16, written by Peter Selinger 2001-2019
</metadata>
<g transform="translate(0.000000,1024.000000) scale(0.100000,-0.100000)"
fill="#000000" stroke="none">
<path d="M4905 8368 c-308 -31 -659 -149 -911 -307 -184 -116 -259 -176 -414
-331 -255 -254 -414 -506 -528 -835 -150 -433 -158 -941 -20 -1350 49 -145 71
-190 103 -211 23 -15 27 -14 92 21 117 62 112 47 65 172 -85 228 -115 398
-116 653 0 423 116 788 364 1143 77 109 291 328 408 416 235 177 502 301 782
361 248 54 581 49 825 -12 413 -103 775 -331 1053 -663 305 -364 467 -834 449
-1303 -9 -231 -38 -377 -118 -596 -22 -60 -38 -110 -37 -111 23 -20 157 -95
168 -95 27 0 59 43 91 121 142 349 176 791 93 1199 -42 204 -166 511 -282 698
-132 212 -349 454 -527 587 -188 140 -449 277 -668 350 -261 86 -592 121 -872
93z"/>
<path d="M4206 7745 c-9 -23 13 -112 44 -182 34 -74 71 -130 135 -200 l46 -53
-36 -58 c-20 -32 -48 -92 -63 -133 -24 -66 -27 -88 -26 -199 0 -105 3 -136 23
-190 50 -143 168 -289 281 -349 32 -17 102 -42 156 -56 131 -35 201 -73 279
-157 l65 -68 65 68 c78 83 148 123 270 153 141 34 208 70 295 158 134 135 186
274 177 471 -5 131 -24 197 -86 300 l-39 64 62 67 c35 37 77 95 95 128 66 125
93 251 53 251 -11 0 -27 -10 -38 -22 -33 -37 -195 -138 -309 -193 -142 -68
-134 -66 -180 -39 -90 51 -192 77 -330 82 -149 5 -239 -12 -356 -67 -36 -17
-71 -31 -78 -31 -47 0 -312 141 -407 216 -71 57 -88 64 -98 39z m535 -534
c119 -25 138 -32 184 -73 80 -69 97 -174 45 -265 -93 -163 -339 -148 -417 25
-22 46 -25 65 -20 117 6 77 68 215 97 215 10 0 60 -9 111 -19z m885 -28 c79
-104 93 -221 37 -312 -74 -118 -250 -148 -357 -59 -123 101 -104 288 35 359
42 21 199 59 234 56 10 -1 34 -21 51 -44z m-443 -435 c22 -23 28 -37 24 -57
-6 -27 -88 -181 -97 -181 -9 0 -100 177 -100 193 0 9 11 29 25 46 43 50 102
50 148 -1z"/>
<path d="M4703 7062 c-51 -39 -47 -117 8 -156 49 -34 128 -7 150 52 12 32 -5
87 -34 107 -29 20 -97 19 -124 -3z"/>
<path d="M5389 7051 c-61 -61 -14 -161 76 -161 13 0 40 14 60 31 44 39 47 83
9 128 -22 26 -33 31 -71 31 -36 0 -50 -6 -74 -29z"/>
<path d="M3786 7215 c-3 -9 -6 -30 -6 -46 0 -24 -4 -29 -24 -29 -46 0 -78 -18
-74 -43 2 -18 11 -23 48 -27 44 -5 45 -6 48 -42 3 -36 5 -38 37 -38 35 0 45
13 45 56 0 22 4 24 45 24 43 0 45 1 45 29 0 31 -14 41 -60 41 -27 0 -29 3 -32
43 -3 39 -5 42 -34 45 -22 2 -33 -2 -38 -13z"/>
<path d="M5936 6529 c-10 -34 -40 -93 -66 -133 -87 -133 -203 -213 -370 -256
-166 -42 -265 -109 -352 -238 l-35 -52 -28 42 c-84 127 -194 204 -348 244 -51
14 -121 38 -155 55 -121 59 -246 202 -297 342 -10 26 -21 47 -25 47 -10 0 -93
-127 -128 -196 -85 -169 -116 -318 -109 -519 5 -150 17 -208 68 -331 34 -82
126 -233 149 -245 8 -4 53 -18 100 -30 106 -29 303 -126 444 -219 65 -43 152
-114 217 -177 l109 -105 88 83 c211 201 468 354 712 424 99 29 107 36 178 174
86 167 122 305 122 472 0 162 -38 315 -118 474 -41 83 -118 205 -129 205 -5 0
-17 -28 -27 -61z"/>
<path d="M3425 5250 c-83 -34 -98 -172 -24 -218 12 -8 81 -17 167 -23 199 -13
285 -25 432 -60 285 -69 606 -231 847 -426 96 -77 223 -207 223 -227 0 -6 -25
-17 -57 -25 -31 -7 -64 -18 -74 -24 -16 -10 -26 -4 -71 40 -230 223 -662 443
-1007 513 -146 29 -364 50 -527 50 l-146 0 -34 -34 c-29 -29 -34 -41 -34 -80
0 -26 7 -60 15 -75 28 -55 55 -60 325 -59 312 0 450 -18 665 -88 229 -75 409
-171 591 -315 l76 -61 -24 -26 c-14 -15 -35 -44 -47 -64 l-22 -37 -86 63
c-246 182 -523 298 -813 340 -143 21 -493 39 -660 34 -140 -4 -179 -17 -205
-68 -22 -43 -20 -122 6 -154 44 -56 50 -56 411 -55 333 1 495 -9 618 -37 102
-23 251 -71 321 -103 l64 -30 -755 0 c-488 -1 -768 -5 -792 -11 -97 -27 -121
-171 -39 -227 24 -17 85 -18 958 -19 l933 -1 39 -61 c80 -123 130 -137 442
-129 216 6 230 7 276 30 52 27 88 62 122 120 27 45 -93 40 967 37 452 -1 847
1 879 5 77 10 115 43 122 106 7 62 -16 105 -70 130 -40 18 -77 19 -802 19
l-760 0 43 20 c71 32 182 70 281 96 172 45 297 55 670 55 378 -1 390 1 424 59
24 40 24 110 1 149 -10 17 -38 41 -63 53 -42 20 -52 21 -306 14 -282 -7 -468
-24 -605 -56 -281 -66 -529 -178 -720 -325 -41 -32 -76 -53 -78 -47 -2 6 -21
38 -42 71 l-39 60 42 34 c173 142 435 274 681 343 198 56 264 65 571 73 187 5
298 12 312 19 86 46 93 176 11 218 -29 15 -55 16 -223 11 -282 -9 -480 -42
-690 -114 -336 -117 -585 -259 -788 -450 l-48 -45 -48 21 c-27 11 -63 22 -80
23 -17 1 -31 4 -31 7 0 16 92 118 162 179 157 135 282 219 474 315 272 136
627 226 894 227 97 1 141 14 173 52 48 58 28 151 -41 184 -30 14 -52 16 -131
10 -590 -41 -1089 -267 -1477 -668 l-91 -94 -53 61 c-214 243 -560 469 -890
583 -154 53 -264 78 -453 102 -165 21 -258 24 -292 10z m1766 -1241 c46 -16
97 -55 120 -93 23 -38 25 -103 3 -134 -15 -21 -20 -22 -200 -22 l-184 0 -20
33 c-25 41 -25 68 0 117 45 88 175 134 281 99z"/>
<path d="M2770 3201 c-6 -13 -10 -160 -10 -411 0 -251 4 -398 10 -411 10 -18
24 -19 258 -19 180 0 251 3 260 12 16 16 16 160 0 176 -8 8 -58 12 -160 12
l-148 0 0 318 c0 234 -3 321 -12 330 -8 8 -45 12 -100 12 -76 0 -89 -2 -98
-19z"/>
<path d="M3420 3201 c-6 -13 -10 -160 -10 -411 0 -251 4 -398 10 -411 9 -17
22 -19 100 -19 78 0 91 2 100 19 6 13 10 162 10 415 0 345 -2 397 -16 410 -12
12 -36 16 -99 16 -73 0 -86 -3 -95 -19z"/>
<path d="M3795 3207 c-3 -6 -4 -199 -3 -427 l3 -415 230 0 c263 0 294 7 364
76 100 100 89 256 -23 329 l-37 24 26 19 c14 11 37 42 52 70 63 126 -13 278
-163 323 -64 19 -442 20 -449 1z m390 -202 c30 -29 33 -73 8 -104 -20 -25 -98
-38 -157 -27 l-36 7 0 74 0 75 80 0 c73 0 83 -3 105 -25z m20 -330 c32 -31 34
-84 4 -111 -17 -16 -37 -19 -113 -19 l-91 0 -3 78 -3 77 91 0 c83 0 93 -2 115
-25z"/>
<path d="M4582 3203 c-5 -10 -6 -195 -3 -428 l6 -410 100 0 100 0 3 138 3 137
37 0 c30 0 40 -5 53 -28 9 -15 47 -78 85 -139 l69 -113 106 0 c88 0 108 3 113
16 8 20 -22 76 -107 203 -60 91 -67 105 -53 113 38 21 88 74 108 112 26 50 35
150 18 202 -30 98 -115 179 -212 202 -27 7 -126 12 -232 12 -166 0 -186 -2
-194 -17z m399 -211 c38 -42 40 -97 5 -135 -24 -26 -98 -43 -161 -35 l-30 3
-3 104 -3 103 82 -4 c77 -3 82 -5 110 -36z"/>
<path d="M5600 3188 c-11 -18 -20 -37 -20 -41 0 -4 -66 -177 -146 -383 -80
-206 -143 -382 -140 -390 4 -11 28 -14 110 -14 l104 0 21 45 c12 25 26 65 33
90 l12 45 96 1 c52 1 106 3 120 4 14 1 30 1 36 -2 7 -2 28 -44 49 -94 l37 -89
109 0 c102 0 109 1 109 20 0 11 -24 81 -54 157 -29 76 -82 210 -116 298 -34
88 -77 198 -95 245 -60 155 -44 140 -152 140 l-93 0 -20 -32z"/>
<path d="M6215 3198 c-3 -13 -4 -205 -3 -428 l3 -405 100 0 100 0 3 138 3 137
35 0 c37 0 36 1 179 -227 l30 -48 110 0 110 0 0 25 c0 14 -37 84 -84 158 l-83
132 51 46 c85 77 114 157 91 256 -16 68 -49 126 -99 171 -63 57 -114 67 -343
67 -197 0 -198 0 -203 -22z m383 -184 c25 -17 52 -64 52 -89 0 -10 -7 -32 -16
-51 -19 -41 -66 -57 -151 -52 -54 3 -56 4 -60 33 -2 17 -1 63 3 103 l6 72 72
0 c49 0 79 -5 94 -16z"/>
<path d="M6873 3205 c-3 -9 8 -37 24 -63 17 -26 78 -122 136 -213 58 -92 111
-177 119 -190 9 -17 15 -79 18 -199 l5 -175 90 -3 c76 -2 92 0 102 14 9 13 13
64 13 176 0 180 -5 163 96 325 167 266 194 316 183 330 -18 21 -212 18 -230
-3 -8 -9 -43 -69 -79 -132 -36 -63 -69 -117 -75 -119 -5 -1 -34 41 -64 95 -30
53 -66 114 -80 134 l-26 38 -113 0 c-92 0 -114 -3 -119 -15z"/>
<path d="M3373 1980 c-55 -33 -56 -127 -1 -150 13 -5 42 -14 66 -20 32 -8 42
-15 40 -28 -4 -22 -42 -27 -90 -11 -34 11 -40 10 -52 -6 -18 -24 -12 -37 23
-58 36 -21 112 -22 152 -1 38 19 63 73 49 108 -12 32 -42 52 -103 67 -35 8
-47 16 -45 28 3 12 16 16 61 16 40 0 60 5 67 15 15 23 12 28 -20 45 -41 21
-108 19 -147 -5z"/>
<path d="M3667 1963 c-9 -49 -9 -187 -1 -235 l7 -38 93 0 92 0 7 31 c4 17 5
32 3 34 -1 2 -30 5 -63 7 l-60 3 -5 115 -5 115 -31 3 c-29 3 -32 0 -37 -35z"/>
<path d="M3998 1868 c-79 -187 -78 -178 -28 -178 37 0 41 3 47 30 5 30 6 30
70 30 63 0 65 -1 76 -30 10 -25 17 -30 46 -30 32 0 33 1 28 33 -3 17 -31 87
-62 155 -56 118 -59 122 -89 122 -30 0 -32 -3 -88 -132z"/>
<path d="M4404 1986 c-96 -42 -112 -198 -27 -263 69 -53 198 -38 230 27 7 14
12 45 11 70 l-3 45 -67 3 -68 3 0 -31 c0 -27 3 -30 30 -30 18 0 30 -5 30 -13
0 -43 -77 -51 -115 -12 -54 53 -13 154 58 142 18 -3 39 -8 48 -12 10 -4 27 3
45 18 l28 25 -34 21 c-41 24 -118 28 -166 7z"/>
<path d="M4747 1993 c-3 -5 -8 -74 -12 -155 l-8 -148 36 0 c41 0 47 11 47 82
0 63 14 60 55 -10 17 -28 32 -52 35 -51 3 0 19 23 35 52 17 29 35 52 40 52 6
0 11 -28 13 -62 l3 -63 34 0 c19 0 36 4 39 9 4 5 3 75 0 155 l-7 146 -31 -1
c-27 0 -36 -9 -79 -76 l-48 -76 -47 77 c-39 65 -50 76 -74 76 -15 0 -29 -3
-31 -7z"/>
<path d="M5552 1988 c-13 -13 -17 -208 -6 -267 6 -27 10 -31 40 -31 l34 0 0
60 0 60 60 0 60 0 0 -60 0 -60 35 0 35 0 0 155 0 155 -35 0 -35 0 0 -60 0 -60
-60 0 -59 0 -3 58 c-3 52 -5 57 -28 60 -14 2 -31 -3 -38 -10z"/>
<path d="M6011 1983 c-19 -37 -111 -268 -111 -280 0 -8 13 -13 34 -13 28 0 37
5 48 28 12 24 19 27 71 30 57 3 59 2 70 -28 10 -27 16 -31 47 -28 29 2 34 7
31 23 -4 26 -100 256 -113 273 -15 18 -66 15 -77 -5z"/>
<path d="M6350 1982 c-41 -22 -80 -90 -80 -140 0 -48 36 -106 80 -131 71 -40
178 -20 210 39 6 11 10 42 8 68 l-3 47 -67 3 -68 3 0 -31 c0 -30 7 -34 43 -30
14 1 18 -4 15 -22 -2 -19 -10 -23 -45 -26 -36 -3 -47 1 -68 24 -34 36 -34 86
0 120 23 23 30 24 88 18 48 -5 65 -3 74 8 14 16 8 28 -27 51 -33 23 -115 22
-160 -1z"/>
<path d="M6684 1987 c-2 -7 -3 -76 -2 -152 l3 -140 107 -3 107 -3 7 27 c10 38
-16 54 -88 54 -51 0 -58 2 -58 20 0 16 7 20 38 20 61 0 82 10 82 36 0 23 -3
24 -60 24 l-60 0 0 30 0 30 70 0 70 0 0 35 0 35 -105 0 c-77 0 -107 -3 -111
-13z"/>
</g>
</svg>
